<svg id="eFqu3PHKcpk1" xmlns="http://www.w3.org/2000/svg" xmlns:xlink="http://www.w3.org/1999/xlink" viewBox="0 0 600 300" shape-rendering="geometricPrecision" text-rendering="geometricPrecision"><ellipse rx="65.643264" ry="58.129879" transform="matrix(1.217063 0 0 1.045841 300 150)" fill="#d2dbed" stroke-width="0"/><ellipse rx="26.099129" ry="25.703667" transform="translate(122.829349 114.909056)" fill="#d2dbed" stroke-width="0"/><ellipse rx="14.235888" ry="12.851833" transform="translate(458.954497 127.760889)" fill="#d2dbed" stroke-width="0"/><ellipse rx="16.213096" ry="16.213096" transform="translate(510.757314 78.528432)" fill="#d2dbed" stroke-width="0"/><ellipse rx="30.448984" ry="30.053542" transform="matrix(.727273 0 0 0.538662 182.936443 260.270333)" fill="#d2dbed" stroke-width="0"/><ellipse rx="12.654168" ry="9.490592" transform="translate(207.453844 52.824744)" fill="#d2dbed" stroke-width="0"/><ellipse rx="30.053542" ry="25.308247" transform="translate(386.193289 227.609821)" fill="#d2dbed" stroke-width="0"/><ellipse rx="19.772067" ry="22.041379" transform="translate(541.997181 188.753232)" fill="#d2dbed" stroke-width="0"/><ellipse rx="23.726481" ry="23.540966" transform="translate(518.2707 276.459034)" fill="#d2dbed" stroke-width="0"/><ellipse rx="14.235889" ry="11.863241" transform="translate(430.48272 50.452096)" fill="#d2dbed" stroke-width="0"/><ellipse rx="17.003979" ry="15.422213" transform="translate(177.795698 182.134066)" fill="#d2dbed" stroke-width="0"/><ellipse rx="8.304268" ry="8.304268" transform="translate(101.080075 30.284587)" fill="#d2dbed" stroke-width="0"/><ellipse rx="21.749274" ry="18.482407" transform="translate(101.080075 192.312204)" fill="#d2dbed" stroke-width="0"/><ellipse rx="6.722503" ry="4.693639" transform="translate(42.554755 145.306361)" fill="#d2dbed" stroke-width="0"/></svg>
