<?xml version="1.0" standalone="no"?>
<svg xmlns:xlink="http://www.w3.org/1999/xlink" id="wave" style="transform:rotate(0deg); transition: 0.3s" viewBox="0 0 1440 290" version="1.1" xmlns="http://www.w3.org/2000/svg"><defs><linearGradient id="sw-gradient-0" x1="0" x2="0" y1="1" y2="0"><stop stop-color="rgba(17.168, 62.754, 49.883, 1)" offset="0%"/><stop stop-color="rgba(185.7, 176.67, 156.708, 1)" offset="100%"/></linearGradient></defs><path style="transform:translate(0, 0px); opacity:1" fill="url(#sw-gradient-0)" d="M0,87L240,91.8C480,97,960,106,1440,130.5C1920,155,2400,193,2880,193.3C3360,193,3840,155,4320,145C4800,135,5280,155,5760,164.3C6240,174,6720,174,7200,154.7C7680,135,8160,97,8640,106.3C9120,116,9600,174,10080,164.3C10560,155,11040,77,11520,53.2C12000,29,12480,58,12960,101.5C13440,145,13920,203,14400,212.7C14880,222,15360,184,15840,178.8C16320,174,16800,203,17280,207.8C17760,213,18240,193,18720,169.2C19200,145,19680,116,20160,91.8C20640,68,21120,48,21600,53.2C22080,58,22560,87,23040,91.8C23520,97,24000,77,24480,72.5C24960,68,25440,77,25920,91.8C26400,106,26880,126,27360,135.3C27840,145,28320,145,28800,145C29280,145,29760,145,30240,149.8C30720,155,31200,164,31680,174C32160,184,32640,193,33120,198.2C33600,203,34080,203,34320,203L34560,203L34560,290L34320,290C34080,290,33600,290,33120,290C32640,290,32160,290,31680,290C31200,290,30720,290,30240,290C29760,290,29280,290,28800,290C28320,290,27840,290,27360,290C26880,290,26400,290,25920,290C25440,290,24960,290,24480,290C24000,290,23520,290,23040,290C22560,290,22080,290,21600,290C21120,290,20640,290,20160,290C19680,290,19200,290,18720,290C18240,290,17760,290,17280,290C16800,290,16320,290,15840,290C15360,290,14880,290,14400,290C13920,290,13440,290,12960,290C12480,290,12000,290,11520,290C11040,290,10560,290,10080,290C9600,290,9120,290,8640,290C8160,290,7680,290,7200,290C6720,290,6240,290,5760,290C5280,290,4800,290,4320,290C3840,290,3360,290,2880,290C2400,290,1920,290,1440,290C960,290,480,290,240,290L0,290Z"/><defs><linearGradient id="sw-gradient-1" x1="0" x2="0" y1="1" y2="0"><stop stop-color="rgba(95, 180, 156, 1)" offset="0%"/><stop stop-color="rgba(255, 255, 255, 1)" offset="100%"/></linearGradient></defs><path style="transform:translate(0, 50px); opacity:0.9" fill="url(#sw-gradient-1)" d="M0,0L240,0C480,0,960,0,1440,4.8C1920,10,2400,19,2880,58C3360,97,3840,164,4320,203C4800,242,5280,251,5760,227.2C6240,203,6720,145,7200,120.8C7680,97,8160,106,8640,130.5C9120,155,9600,193,10080,174C10560,155,11040,77,11520,67.7C12000,58,12480,116,12960,145C13440,174,13920,174,14400,145C14880,116,15360,58,15840,29C16320,0,16800,0,17280,43.5C17760,87,18240,174,18720,212.7C19200,251,19680,242,20160,222.3C20640,203,21120,174,21600,164.3C22080,155,22560,164,23040,169.2C23520,174,24000,174,24480,188.5C24960,203,25440,232,25920,227.2C26400,222,26880,184,27360,174C27840,164,28320,184,28800,198.2C29280,213,29760,222,30240,203C30720,184,31200,135,31680,120.8C32160,106,32640,126,33120,116C33600,106,34080,68,34320,48.3L34560,29L34560,290L34320,290C34080,290,33600,290,33120,290C32640,290,32160,290,31680,290C31200,290,30720,290,30240,290C29760,290,29280,290,28800,290C28320,290,27840,290,27360,290C26880,290,26400,290,25920,290C25440,290,24960,290,24480,290C24000,290,23520,290,23040,290C22560,290,22080,290,21600,290C21120,290,20640,290,20160,290C19680,290,19200,290,18720,290C18240,290,17760,290,17280,290C16800,290,16320,290,15840,290C15360,290,14880,290,14400,290C13920,290,13440,290,12960,290C12480,290,12000,290,11520,290C11040,290,10560,290,10080,290C9600,290,9120,290,8640,290C8160,290,7680,290,7200,290C6720,290,6240,290,5760,290C5280,290,4800,290,4320,290C3840,290,3360,290,2880,290C2400,290,1920,290,1440,290C960,290,480,290,240,290L0,290Z"/></svg>