<?xml version="1.0" standalone="no"?>
<svg xmlns:xlink="http://www.w3.org/1999/xlink" id="wave" style="transform:rotate(180deg); transition: 0.3s" viewBox="0 0 1440 490" version="1.1" xmlns="http://www.w3.org/2000/svg"><defs><linearGradient id="sw-gradient-0" x1="0" x2="0" y1="1" y2="0"><stop stop-color="rgba(255, 61.989, 0, 1)" offset="0%"/><stop stop-color="rgba(116.486, 38.282, 0.296, 1)" offset="100%"/></linearGradient></defs><path style="transform:translate(0, 0px); opacity:1" fill="url(#sw-gradient-0)" d="M0,294L240,277.7C480,261,960,229,1440,253.2C1920,278,2400,359,2880,367.5C3360,376,3840,310,4320,277.7C4800,245,5280,245,5760,245C6240,245,6720,245,7200,228.7C7680,212,8160,180,8640,179.7C9120,180,9600,212,10080,212.3C10560,212,11040,180,11520,204.2C12000,229,12480,310,12960,294C13440,278,13920,163,14400,147C14880,131,15360,212,15840,228.7C16320,245,16800,196,17280,163.3C17760,131,18240,114,18720,163.3C19200,212,19680,327,20160,334.8C20640,343,21120,245,21600,236.8C22080,229,22560,310,23040,326.7C23520,343,24000,294,24480,253.2C24960,212,25440,180,25920,187.8C26400,196,26880,245,27360,220.5C27840,196,28320,98,28800,89.8C29280,82,29760,163,30240,228.7C30720,294,31200,343,31680,334.8C32160,327,32640,261,33120,196C33600,131,34080,65,34320,32.7L34560,0L34560,490L34320,490C34080,490,33600,490,33120,490C32640,490,32160,490,31680,490C31200,490,30720,490,30240,490C29760,490,29280,490,28800,490C28320,490,27840,490,27360,490C26880,490,26400,490,25920,490C25440,490,24960,490,24480,490C24000,490,23520,490,23040,490C22560,490,22080,490,21600,490C21120,490,20640,490,20160,490C19680,490,19200,490,18720,490C18240,490,17760,490,17280,490C16800,490,16320,490,15840,490C15360,490,14880,490,14400,490C13920,490,13440,490,12960,490C12480,490,12000,490,11520,490C11040,490,10560,490,10080,490C9600,490,9120,490,8640,490C8160,490,7680,490,7200,490C6720,490,6240,490,5760,490C5280,490,4800,490,4320,490C3840,490,3360,490,2880,490C2400,490,1920,490,1440,490C960,490,480,490,240,490L0,490Z"/></svg>